<svg xmlns="http://www.w3.org/2000/svg" width="1200" height="800" viewBox="0 0 1200 800" role="img" aria-labelledby="title desc">
  <title id="title">About Wisconsin Steel Structures</title>
  <desc id="desc">Illustration of planning team and steel structure frame for Wisconsin projects.</desc>
  <defs>
    <linearGradient id="bgAbout" x1="0" y1="0" x2="1" y2="1">
      <stop offset="0%" stop-color="#dbeafe"/>
      <stop offset="100%" stop-color="#f8fafc"/>
    </linearGradient>
  </defs>
  <rect width="1200" height="800" fill="url(#bgAbout)"/>
  <rect y="595" width="1200" height="205" fill="#e2e8f0"/>
  <rect x="120" y="170" width="460" height="390" rx="16" fill="#ffffff" stroke="#1e293b" stroke-width="8"/>
  <line x1="180" y1="260" x2="520" y2="260" stroke="#94a3b8" stroke-width="8"/>
  <line x1="180" y1="330" x2="520" y2="330" stroke="#94a3b8" stroke-width="8"/>
  <line x1="180" y1="400" x2="450" y2="400" stroke="#94a3b8" stroke-width="8"/>
  <circle cx="250" cy="205" r="18" fill="#166534"/>
  <polygon points="700,560 980,560 920,260 640,260" fill="#e2e8f0" stroke="#14532d" stroke-width="8"/>
  <line x1="640" y1="260" x2="980" y2="260" stroke="#14532d" stroke-width="8"/>
  <line x1="700" y1="560" x2="980" y2="560" stroke="#14532d" stroke-width="8"/>
  <line x1="760" y1="560" x2="700" y2="260" stroke="#14532d" stroke-width="8"/>
  <line x1="840" y1="560" x2="780" y2="260" stroke="#14532d" stroke-width="8"/>
  <circle cx="1010" cy="600" r="52" fill="#166534"/>
  <rect x="980" y="585" width="60" height="14" rx="5" fill="#f8fafc"/>
</svg>
